<svg width="800" height="400" viewBox="0 0 800 400" fill="none" xmlns="http://www.w3.org/2000/svg">
  <!-- North America -->
  <circle cx="150" cy="120" r="2" fill="#3B82F6" opacity="0.8"/>
  <circle cx="160" cy="115" r="2" fill="#3B82F6" opacity="0.8"/>
  <circle cx="170" cy="110" r="2" fill="#3B82F6" opacity="0.8"/>
  <circle cx="180" cy="105" r="2" fill="#3B82F6" opacity="0.8"/>
  <circle cx="190" cy="100" r="2" fill="#3B82F6" opacity="0.8"/>
  <circle cx="140" cy="110" r="2" fill="#3B82F6" opacity="0.8"/>
  <circle cx="150" cy="100" r="2" fill="#3B82F6" opacity="0.8"/>
  <circle cx="160" cy="95" r="2" fill="#3B82F6" opacity="0.8"/>
  <circle cx="170" cy="90" r="2" fill="#3B82F6" opacity="0.8"/>
  <circle cx="180" cy="85" r="2" fill="#3B82F6" opacity="0.8"/>
  <circle cx="130" cy="130" r="2" fill="#3B82F6" opacity="0.8"/>
  <circle cx="140" cy="125" r="2" fill="#3B82F6" opacity="0.8"/>
  <circle cx="150" cy="140" r="2" fill="#3B82F6" opacity="0.8"/>
  <circle cx="160" cy="135" r="2" fill="#3B82F6" opacity="0.8"/>
  <circle cx="170" cy="130" r="2" fill="#3B82F6" opacity="0.8"/>
  <circle cx="180" cy="125" r="2" fill="#3B82F6" opacity="0.8"/>
  <circle cx="190" cy="120" r="2" fill="#3B82F6" opacity="0.8"/>
  <circle cx="200" cy="115" r="2" fill="#3B82F6" opacity="0.8"/>
  <circle cx="210" cy="110" r="2" fill="#3B82F6" opacity="0.8"/>
  <circle cx="220" cy="105" r="2" fill="#3B82F6" opacity="0.8"/>
  <circle cx="230" cy="110" r="2" fill="#3B82F6" opacity="0.8"/>
  <circle cx="240" cy="115" r="2" fill="#3B82F6" opacity="0.8"/>
  <circle cx="250" cy="120" r="2" fill="#3B82F6" opacity="0.8"/>
  <circle cx="260" cy="125" r="2" fill="#3B82F6" opacity="0.8"/>
  <circle cx="240" cy="130" r="2" fill="#3B82F6" opacity="0.8"/>
  <circle cx="230" cy="135" r="2" fill="#3B82F6" opacity="0.8"/>
  <circle cx="220" cy="140" r="2" fill="#3B82F6" opacity="0.8"/>
  <circle cx="210" cy="145" r="2" fill="#3B82F6" opacity="0.8"/>
  <circle cx="200" cy="150" r="2" fill="#3B82F6" opacity="0.8"/>
  <circle cx="190" cy="155" r="2" fill="#3B82F6" opacity="0.8"/>
  <circle cx="180" cy="160" r="2" fill="#3B82F6" opacity="0.8"/>

  <!-- South America -->
  <circle cx="230" cy="220" r="2" fill="#4F46E5" opacity="0.8"/>
  <circle cx="225" cy="230" r="2" fill="#4F46E5" opacity="0.8"/>
  <circle cx="220" cy="240" r="2" fill="#4F46E5" opacity="0.8"/>
  <circle cx="215" cy="250" r="2" fill="#4F46E5" opacity="0.8"/>
  <circle cx="210" cy="260" r="2" fill="#4F46E5" opacity="0.8"/>
  <circle cx="205" cy="270" r="2" fill="#4F46E5" opacity="0.8"/>
  <circle cx="200" cy="280" r="2" fill="#4F46E5" opacity="0.8"/>
  <circle cx="210" cy="290" r="2" fill="#4F46E5" opacity="0.8"/>
  <circle cx="220" cy="280" r="2" fill="#4F46E5" opacity="0.8"/>
  <circle cx="230" cy="270" r="2" fill="#4F46E5" opacity="0.8"/>
  <circle cx="240" cy="260" r="2" fill="#4F46E5" opacity="0.8"/>
  <circle cx="250" cy="250" r="2" fill="#4F46E5" opacity="0.8"/>
  <circle cx="240" cy="240" r="2" fill="#4F46E5" opacity="0.8"/>
  <circle cx="230" cy="230" r="2" fill="#4F46E5" opacity="0.8"/>

  <!-- Europe -->
  <circle cx="380" cy="100" r="2" fill="#3B82F6" opacity="0.8"/>
  <circle cx="390" cy="95" r="2" fill="#3B82F6" opacity="0.8"/>
  <circle cx="400" cy="90" r="2" fill="#3B82F6" opacity="0.8"/>
  <circle cx="410" cy="95" r="2" fill="#3B82F6" opacity="0.8"/>
  <circle cx="420" cy="100" r="2" fill="#3B82F6" opacity="0.8"/>
  <circle cx="430" cy="105" r="2" fill="#3B82F6" opacity="0.8"/>
  <circle cx="380" cy="110" r="2" fill="#3B82F6" opacity="0.8"/>
  <circle cx="390" cy="105" r="2" fill="#3B82F6" opacity="0.8"/>
  <circle cx="400" cy="100" r="2" fill="#3B82F6" opacity="0.8"/>
  <circle cx="410" cy="105" r="2" fill="#3B82F6" opacity="0.8"/>
  <circle cx="420" cy="110" r="2" fill="#3B82F6" opacity="0.8"/>
  <circle cx="430" cy="115" r="2" fill="#3B82F6" opacity="0.8"/>
  <circle cx="370" cy="120" r="2" fill="#3B82F6" opacity="0.8"/>
  <circle cx="380" cy="125" r="2" fill="#3B82F6" opacity="0.8"/>
  <circle cx="390" cy="130" r="2" fill="#3B82F6" opacity="0.8"/>
  <circle cx="400" cy="135" r="2" fill="#3B82F6" opacity="0.8"/>
  <circle cx="410" cy="130" r="2" fill="#3B82F6" opacity="0.8"/>
  <circle cx="420" cy="125" r="2" fill="#3B82F6" opacity="0.8"/>
  <circle cx="430" cy="120" r="2" fill="#3B82F6" opacity="0.8"/>
  <circle cx="440" cy="115" r="2" fill="#3B82F6" opacity="0.8"/>

  <!-- Africa -->
  <circle cx="410" cy="180" r="2" fill="#4F46E5" opacity="0.8"/>
  <circle cx="415" cy="190" r="2" fill="#4F46E5" opacity="0.8"/>
  <circle cx="420" cy="200" r="2" fill="#4F46E5" opacity="0.8"/>
  <circle cx="425" cy="210" r="2" fill="#4F46E5" opacity="0.8"/>
  <circle cx="430" cy="220" r="2" fill="#4F46E5" opacity="0.8"/>
  <circle cx="435" cy="230" r="2" fill="#4F46E5" opacity="0.8"/>
  <circle cx="440" cy="240" r="2" fill="#4F46E5" opacity="0.8"/>
  <circle cx="445" cy="220" r="2" fill="#4F46E5" opacity="0.8"/>
  <circle cx="450" cy="210" r="2" fill="#4F46E5" opacity="0.8"/>
  <circle cx="455" cy="200" r="2" fill="#4F46E5" opacity="0.8"/>
  <circle cx="460" cy="190" r="2" fill="#4F46E5" opacity="0.8"/>
  <circle cx="465" cy="180" r="2" fill="#4F46E5" opacity="0.8"/>
  <circle cx="440" cy="170" r="2" fill="#4F46E5" opacity="0.8"/>
  <circle cx="430" cy="160" r="2" fill="#4F46E5" opacity="0.8"/>
  <circle cx="420" cy="170" r="2" fill="#4F46E5" opacity="0.8"/>
  <circle cx="410" cy="180" r="2" fill="#4F46E5" opacity="0.8"/>

  <!-- Asia -->
  <circle cx="490" cy="120" r="2" fill="#3B82F6" opacity="0.8"/>
  <circle cx="500" cy="110" r="2" fill="#3B82F6" opacity="0.8"/>
  <circle cx="510" cy="100" r="2" fill="#3B82F6" opacity="0.8"/>
  <circle cx="520" cy="110" r="2" fill="#3B82F6" opacity="0.8"/>
  <circle cx="530" cy="120" r="2" fill="#3B82F6" opacity="0.8"/>
  <circle cx="540" cy="130" r="2" fill="#3B82F6" opacity="0.8"/>
  <circle cx="550" cy="140" r="2" fill="#3B82F6" opacity="0.8"/>
  <circle cx="560" cy="130" r="2" fill="#3B82F6" opacity="0.8"/>
  <circle cx="570" cy="120" r="2" fill="#3B82F6" opacity="0.8"/>
  <circle cx="580" cy="110" r="2" fill="#3B82F6" opacity="0.8"/>
  <circle cx="590" cy="120" r="2" fill="#3B82F6" opacity="0.8"/>
  <circle cx="600" cy="130" r="2" fill="#3B82F6" opacity="0.8"/>
  <circle cx="610" cy="140" r="2" fill="#3B82F6" opacity="0.8"/>
  <circle cx="620" cy="150" r="2" fill="#3B82F6" opacity="0.8"/>
  <circle cx="630" cy="140" r="2" fill="#3B82F6" opacity="0.8"/>
  <circle cx="640" cy="130" r="2" fill="#3B82F6" opacity="0.8"/>
  <circle cx="650" cy="120" r="2" fill="#3B82F6" opacity="0.8"/>
  <circle cx="490" cy="130" r="2" fill="#3B82F6" opacity="0.8"/>
  <circle cx="500" cy="140" r="2" fill="#3B82F6" opacity="0.8"/>
  <circle cx="510" cy="150" r="2" fill="#3B82F6" opacity="0.8"/>
  <circle cx="520" cy="160" r="2" fill="#3B82F6" opacity="0.8"/>
  <circle cx="530" cy="170" r="2" fill="#3B82F6" opacity="0.8"/>
  <circle cx="540" cy="160" r="2" fill="#3B82F6" opacity="0.8"/>
  <circle cx="550" cy="150" r="2" fill="#3B82F6" opacity="0.8"/>
  <circle cx="560" cy="160" r="2" fill="#3B82F6" opacity="0.8"/>
  <circle cx="570" cy="170" r="2" fill="#3B82F6" opacity="0.8"/>
  <circle cx="580" cy="180" r="2" fill="#3B82F6" opacity="0.8"/>
  <circle cx="590" cy="170" r="2" fill="#3B82F6" opacity="0.8"/>
  <circle cx="600" cy="160" r="2" fill="#3B82F6" opacity="0.8"/>
  <circle cx="610" cy="150" r="2" fill="#3B82F6" opacity="0.8"/>

  <!-- Australia -->
  <circle cx="630" cy="250" r="2" fill="#4F46E5" opacity="0.8"/>
  <circle cx="640" cy="260" r="2" fill="#4F46E5" opacity="0.8"/>
  <circle cx="650" cy="270" r="2" fill="#4F46E5" opacity="0.8"/>
  <circle cx="660" cy="280" r="2" fill="#4F46E5" opacity="0.8"/>
  <circle cx="670" cy="270" r="2" fill="#4F46E5" opacity="0.8"/>
  <circle cx="680" cy="260" r="2" fill="#4F46E5" opacity="0.8"/>
  <circle cx="690" cy="250" r="2" fill="#4F46E5" opacity="0.8"/>
  <circle cx="680" cy="240" r="2" fill="#4F46E5" opacity="0.8"/>
  <circle cx="670" cy="230" r="2" fill="#4F46E5" opacity="0.8"/>
  <circle cx="660" cy="240" r="2" fill="#4F46E5" opacity="0.8"/>
  <circle cx="650" cy="250" r="2" fill="#4F46E5" opacity="0.8"/>
  <circle cx="640" cy="240" r="2" fill="#4F46E5" opacity="0.8"/>
  <circle cx="630" cy="230" r="2" fill="#4F46E5" opacity="0.8"/>
</svg> 