<svg width="100" height="100" viewBox="0 0 100 100" xmlns="http://www.w3.org/2000/svg">
  <defs>
    <!-- Mini Compass -->
    <symbol id="mini-compass" viewBox="0 0 20 20">
      <circle cx="10" cy="10" r="9" fill="none" stroke="currentColor" stroke-width="0.5"/>
      <path d="M10,1 L10,3" stroke="currentColor" stroke-width="0.5"/>
      <path d="M10,17 L10,19" stroke="currentColor" stroke-width="0.5"/>
      <path d="M1,10 L3,10" stroke="currentColor" stroke-width="0.5"/>
      <path d="M17,10 L19,10" stroke="currentColor" stroke-width="0.5"/>
      <path d="M10,10 L14,6" stroke="currentColor" stroke-width="0.5"/>
      <path d="M10,10 L6,14" stroke="currentColor" stroke-width="0.5"/>
    </symbol>
    
    <!-- Mini Plane -->
    <symbol id="mini-plane" viewBox="0 0 20 20">
      <path d="M18,10 L4,18 L6,10 L4,2 L18,10 Z" fill="none" stroke="currentColor" stroke-width="0.5"/>
      <circle cx="7" cy="10" r="1" fill="currentColor"/>
    </symbol>
    
    <!-- Mini Location Pin -->
    <symbol id="mini-pin" viewBox="0 0 20 20">
      <path d="M10,2 C6.5,2 4,4.5 4,8 C4,13 10,18 10,18 C10,18 16,13 16,8 C16,4.5 13.5,2 10,2 Z" fill="none" stroke="currentColor" stroke-width="0.5"/>
      <circle cx="10" cy="8" r="2" fill="none" stroke="currentColor" stroke-width="0.5"/>
    </symbol>
    
    <!-- Mini Globe -->
    <symbol id="mini-globe" viewBox="0 0 20 20">
      <circle cx="10" cy="10" r="8" fill="none" stroke="currentColor" stroke-width="0.5"/>
      <ellipse cx="10" cy="10" rx="8" ry="3" fill="none" stroke="currentColor" stroke-width="0.3"/>
      <path d="M2,10 L18,10" stroke="currentColor" stroke-width="0.3"/>
      <path d="M10,2 L10,18" stroke="currentColor" stroke-width="0.3"/>
    </symbol>
    
    <!-- Mini Sun -->
    <symbol id="mini-sun" viewBox="0 0 20 20">
      <circle cx="10" cy="10" r="4" fill="none" stroke="currentColor" stroke-width="0.5"/>
      <path d="M10,2 L10,4" stroke="currentColor" stroke-width="0.5"/>
      <path d="M10,16 L10,18" stroke="currentColor" stroke-width="0.5"/>
      <path d="M2,10 L4,10" stroke="currentColor" stroke-width="0.5"/>
      <path d="M16,10 L18,10" stroke="currentColor" stroke-width="0.5"/>
      <path d="M4,4 L6,6" stroke="currentColor" stroke-width="0.5"/>
      <path d="M14,14 L16,16" stroke="currentColor" stroke-width="0.5"/>
      <path d="M4,16 L6,14" stroke="currentColor" stroke-width="0.5"/>
      <path d="M14,6 L16,4" stroke="currentColor" stroke-width="0.5"/>
    </symbol>
  </defs>
  
  <!-- Pattern Grid -->
  <pattern id="pattern" width="50" height="50" patternUnits="userSpaceOnUse">
    <rect width="50" height="50" fill="none"/>
    
    <!-- Top Left: Compass -->
    <use href="#mini-compass" x="5" y="5" width="15" height="15" opacity="0.5"/>
    
    <!-- Top Right: Plane -->
    <use href="#mini-plane" x="30" y="10" width="15" height="15" opacity="0.5"/>
    
    <!-- Bottom Left: Location Pin -->
    <use href="#mini-pin" x="10" y="30" width="15" height="15" opacity="0.5"/>
    
    <!-- Bottom Right: Globe -->
    <use href="#mini-globe" x="35" y="35" width="10" height="10" opacity="0.5"/>
    
    <!-- Center: Sun -->
    <use href="#mini-sun" x="20" y="20" width="10" height="10" opacity="0.3"/>
    
    <!-- Decorative dots -->
    <circle cx="25" cy="5" r="0.5" fill="currentColor" opacity="0.3"/>
    <circle cx="45" cy="25" r="0.5" fill="currentColor" opacity="0.3"/>
    <circle cx="5" cy="25" r="0.5" fill="currentColor" opacity="0.3"/>
    <circle cx="25" cy="45" r="0.5" fill="currentColor" opacity="0.3"/>
  </pattern>
  
  <!-- Fill the SVG with the pattern -->
  <rect width="100" height="100" fill="url(#pattern)"/>
</svg> 