<svg width="1000" height="600" viewBox="0 0 1000 600" xmlns="http://www.w3.org/2000/svg">
  <g fill="currentColor" opacity="0.15">
    <!-- World Map Simplified -->
    <path d="M80,225 c10,5 30,10 35,-5 c5,-15 15,-20 25,-15 c10,5 15,15 30,5 c15,-10 20,-5 35,5 c15,10 25,5 35,-5 c10,-10 20,-5 30,0 c10,5 20,0 25,-10 c5,-10 15,-15 25,-10 c10,5 20,15 30,10 c10,-5 15,-15 25,-10 c10,5 15,15 25,10 c10,-5 15,-15 25,-10 c10,5 20,15 30,5 c10,-10 20,-5 30,0 c10,5 15,-5 25,-10 c10,-5 20,0 25,10 c5,10 15,5 25,0 c10,-5 20,0 25,10 c5,10 15,5 25,0 c10,-5 20,0 25,10 c5,10 15,5 25,0 c10,-5 20,0 30,10 c10,10 20,5 30,-5 c10,-10 25,-5 35,5 c10,10 25,5 35,-5 c10,-10 20,-5 30,0 c10,5 25,0 35,-10 c10,-10 25,-5 35,5 c10,10 20,5 30,-5 c10,-10 20,-5 30,0 c10,5 25,0 35,-10"/>
    <path d="M150,300 c15,10 25,5 35,-5 c10,-10 20,-5 30,0 c10,5 20,0 25,-10 c5,-10 15,-15 25,-10 c10,5 20,15 30,10 c10,-5 15,-15 25,-10 c10,5 15,15 25,10 c10,-5 15,-15 25,-10 c10,5 20,15 30,5 c10,-10 20,-5 30,0 c10,5 15,-5 25,-10 c10,-5 20,0 25,10 c5,10 15,5 25,0 c10,-5 20,0 25,10 c5,10 15,5 25,0 c10,-5 20,0 25,10 c5,10 15,5 25,0 c10,-5 20,0 30,10 c10,10 20,5 30,-5 c10,-10 25,-5 35,5 c10,10 25,5 35,-5 c10,-10 20,-5 30,0 c10,5 25,0 35,-10"/>
    <path d="M80,375 c10,5 30,10 35,-5 c5,-15 15,-20 25,-15 c10,5 15,15 30,5 c15,-10 20,-5 35,5 c15,10 25,5 35,-5 c10,-10 20,-5 30,0 c10,5 20,0 25,-10 c5,-10 15,-15 25,-10 c10,5 20,15 30,10 c10,-5 15,-15 25,-10 c10,5 15,15 25,10 c10,-5 15,-15 25,-10 c10,5 20,15 30,5 c10,-10 20,-5 30,0 c10,5 15,-5 25,-10 c10,-5 20,0 25,10 c5,10 15,5 25,0 c10,-5 20,0 25,10 c5,10 15,5 25,0 c10,-5 20,0 25,10 c5,10 15,5 25,0 c10,-5 20,0 30,10 c10,10 20,5 30,-5 c10,-10 25,-5 35,5 c10,10 25,5 35,-5 c10,-10 20,-5 30,0 c10,5 25,0 35,-10"/>
    
    <!-- Continents -->
    <path d="M180,150 c20,0 50,-20 70,-10 c20,10 40,30 60,20 c20,-10 40,-30 60,-20 c20,10 40,30 60,20 c20,-10 30,-20 50,-15 c20,5 40,15 60,5 c20,-10 40,-30 60,-20 c20,10 40,30 60,20 c20,-10 30,-20 50,-10 c20,10 40,30 60,20" />
    <path d="M200,400 c20,0 50,-20 70,-10 c20,10 40,30 60,20 c20,-10 40,-30 60,-20 c20,10 40,30 60,20 c20,-10 30,-20 50,-15 c20,5 40,15 60,5 c20,-10 40,-30 60,-20 c20,10 40,30 60,20" />
    
    <!-- Islands -->
    <circle cx="250" cy="200" r="10" />
    <circle cx="450" cy="300" r="15" />
    <circle cx="650" cy="350" r="12" />
    <circle cx="850" cy="250" r="8" />
    
    <!-- Location Dots -->
    <circle cx="300" cy="180" r="5" />
    <circle cx="400" cy="250" r="5" />
    <circle cx="500" cy="200" r="5" />
    <circle cx="600" cy="350" r="5" />
    <circle cx="700" cy="280" r="5" />
    <circle cx="800" cy="200" r="5" />
    
    <!-- Flight Paths -->
    <path d="M320,200 c50,-20 100,-10 150,-30" stroke="currentColor" stroke-width="2" fill="none" />
    <path d="M500,220 c80,-40 160,-20 240,-60" stroke="currentColor" stroke-width="2" fill="none" />
    <path d="M350,300 c100,-50 200,-25 300,-75" stroke="currentColor" stroke-width="2" fill="none" />
  </g>
</svg> 