<svg width="800" height="400" viewBox="0 0 800 400" xmlns="http://www.w3.org/2000/svg">
  <!-- World map represented by dots -->
  
  <!-- North America -->
  <g fill="#3b82f6">
    <circle cx="150" cy="120" r="3" />
    <circle cx="160" cy="110" r="3" />
    <circle cx="170" cy="100" r="3" />
    <circle cx="180" cy="90" r="3" />
    <circle cx="190" cy="100" r="3" />
    <circle cx="200" cy="110" r="3" />
    <circle cx="210" cy="120" r="3" />
    <circle cx="160" cy="130" r="3" />
    <circle cx="170" cy="140" r="3" />
    <circle cx="180" cy="150" r="3" />
    <circle cx="190" cy="160" r="3" />
    <circle cx="200" cy="170" r="3" />
    <circle cx="210" cy="180" r="3" />
    <circle cx="220" cy="150" r="3" />
    <circle cx="230" cy="160" r="3" />
  </g>
  
  <!-- South America -->
  <g fill="#3b82f6">
    <circle cx="240" cy="200" r="3" />
    <circle cx="250" cy="210" r="3" />
    <circle cx="260" cy="220" r="3" />
    <circle cx="270" cy="230" r="3" />
    <circle cx="280" cy="240" r="3" />
    <circle cx="270" cy="250" r="3" />
    <circle cx="260" cy="260" r="3" />
    <circle cx="250" cy="270" r="3" />
    <circle cx="240" cy="280" r="3" />
    <circle cx="230" cy="270" r="3" />
    <circle cx="220" cy="260" r="3" />
    <circle cx="210" cy="250" r="3" />
    <circle cx="220" cy="240" r="3" />
    <circle cx="230" cy="230" r="3" />
    <circle cx="240" cy="220" r="3" />
  </g>
  
  <!-- Europe -->
  <g fill="#3b82f6">
    <circle cx="380" cy="110" r="3" />
    <circle cx="390" cy="100" r="3" />
    <circle cx="400" cy="90" r="3" />
    <circle cx="410" cy="80" r="3" />
    <circle cx="420" cy="90" r="3" />
    <circle cx="430" cy="100" r="3" />
    <circle cx="440" cy="110" r="3" />
    <circle cx="390" cy="120" r="3" />
    <circle cx="400" cy="130" r="3" />
    <circle cx="410" cy="120" r="3" />
    <circle cx="420" cy="110" r="3" />
  </g>
  
  <!-- Africa -->
  <g fill="#3b82f6">
    <circle cx="420" cy="150" r="3" />
    <circle cx="430" cy="160" r="3" />
    <circle cx="440" cy="170" r="3" />
    <circle cx="450" cy="180" r="3" />
    <circle cx="460" cy="190" r="3" />
    <circle cx="470" cy="200" r="3" />
    <circle cx="460" cy="210" r="3" />
    <circle cx="450" cy="220" r="3" />
    <circle cx="440" cy="230" r="3" />
    <circle cx="430" cy="240" r="3" />
    <circle cx="420" cy="230" r="3" />
    <circle cx="410" cy="220" r="3" />
    <circle cx="400" cy="210" r="3" />
    <circle cx="390" cy="200" r="3" />
    <circle cx="400" cy="190" r="3" />
    <circle cx="410" cy="180" r="3" />
    <circle cx="420" cy="170" r="3" />
  </g>
  
  <!-- Asia -->
  <g fill="#3b82f6">
    <circle cx="480" cy="100" r="3" />
    <circle cx="490" cy="90" r="3" />
    <circle cx="500" cy="80" r="3" />
    <circle cx="510" cy="90" r="3" />
    <circle cx="520" cy="100" r="3" />
    <circle cx="530" cy="110" r="3" />
    <circle cx="540" cy="120" r="3" />
    <circle cx="550" cy="130" r="3" />
    <circle cx="560" cy="120" r="3" />
    <circle cx="570" cy="110" r="3" />
    <circle cx="580" cy="100" r="3" />
    <circle cx="590" cy="90" r="3" />
    <circle cx="600" cy="100" r="3" />
    <circle cx="610" cy="110" r="3" />
    <circle cx="620" cy="120" r="3" />
    <circle cx="600" cy="130" r="3" />
    <circle cx="590" cy="140" r="3" />
    <circle cx="580" cy="150" r="3" />
    <circle cx="570" cy="160" r="3" />
    <circle cx="560" cy="170" r="3" />
    <circle cx="550" cy="160" r="3" />
    <circle cx="540" cy="150" r="3" />
    <circle cx="530" cy="140" r="3" />
    <circle cx="520" cy="130" r="3" />
  </g>
  
  <!-- Australia -->
  <g fill="#3b82f6">
    <circle cx="650" cy="240" r="3" />
    <circle cx="660" cy="250" r="3" />
    <circle cx="670" cy="260" r="3" />
    <circle cx="680" cy="250" r="3" />
    <circle cx="690" cy="240" r="3" />
    <circle cx="680" cy="230" r="3" />
    <circle cx="670" cy="220" r="3" />
    <circle cx="660" cy="230" r="3" />
  </g>
  
  <!-- Connection lines between continents -->
  <g stroke="#3b82f6" stroke-width="0.5" stroke-opacity="0.3">
    <line x1="210" y1="120" x2="380" y2="110" />
    <line x1="210" y1="180" x2="240" y2="200" />
    <line x1="440" y1="110" x2="480" y2="100" />
    <line x1="470" y1="200" x2="650" y2="240" />
    <line x1="420" y1="150" x2="380" y2="110" />
    <line x1="620" y1="120" x2="650" y2="240" />
  </g>
  
  <!-- Popular destinations - highlighted dots -->
  <g fill="#ef4444">
    <circle cx="190" cy="120" r="5" /> <!-- New York -->
    <circle cx="390" cy="110" r="5" /> <!-- Barcelona -->
    <circle cx="415" cy="195" r="5" /> <!-- Marrakech -->
    <circle cx="600" cy="150" r="5" /> <!-- Kyoto -->
    <circle cx="430" cy="110" r="5" /> <!-- Santorini -->
    <circle cx="670" cy="260" r="5" /> <!-- Queenstown -->
  </g>
  
  <!-- Labels for popular destinations -->
  <g font-family="Arial, sans-serif" font-size="10" fill="#334155" text-anchor="middle">
    <text x="190" y="110">New York</text>
    <text x="390" y="100">Barcelona</text>
    <text x="415" y="185">Marrakech</text>
    <text x="600" y="140">Kyoto</text>
    <text x="430" y="100">Santorini</text>
    <text x="670" y="270">Queenstown</text>
  </g>
</svg> 